<?xml version="1.0" encoding="utf-8"?>
<!-- Generator: Adobe Illustrator 23.0.1, SVG Export Plug-In . SVG Version: 6.00 Build 0)  -->
<svg version="1.1" id="Layer_1" xmlns="http://www.w3.org/2000/svg" xmlns:xlink="http://www.w3.org/1999/xlink" x="0px" y="0px"
	 viewBox="0 0 576 828" style="enable-background:new 0 0 576 828;" xml:space="preserve">
<style type="text/css">
	.st0{fill:#F5CEC6;stroke:#F5CEC6;stroke-miterlimit:10;}
	.st1{fill:#737373;}
	.st2{font-family:'TamilMN';}
	.st3{font-size:78.8571px;}
	.st4{letter-spacing:42.09;}
	.st5{font-family:'TamilMN-Bold';}
	.st6{font-size:14.7857px;}
	.st7{letter-spacing:2.05;}
	.st8{font-size:18.0714px;}
	.st9{font-size:13.1429px;}
	.st10{font-family:'AdobeSongStd-Light-GBpc-EUC-H';}
	.st11{font-size:9.8571px;}
	.st12{font-size:6.5714px;}
	.st13{fill:#FFFFFF;}
	.st14{font-size:11.5px;}
	.st15{font-size:23px;}
	.st16{letter-spacing:8.21;}
	.st17{fill:#FFFFFF;stroke:#FFFFFF;stroke-miterlimit:10;}
</style>
<rect x="136.93" class="st0" width="439.07" height="828"/>
<rect y="140.79" class="st1" width="210.6" height="569.36"/>
<text transform="matrix(0.9741 0 0 1 36.0654 113.6196)" class="st1 st2 st3 st4">MENU</text>
<g>
	<text transform="matrix(0.9741 0 0 1 219.8145 199.2915)" class="st1 st5 st6">BOOTY LIFT</text>
</g>
<g>
	<text transform="matrix(0.9741 0 0 1 219.8135 413.2388)" class="st1 st5 st6">LASER LIPOSUCTION</text>
</g>
<g>
	<text transform="matrix(0.9741 0 0 1 219.8145 515.3115)" class="st1 st5 st6 st7">CAVITATION THERAPY</text>
</g>
<g>
	<text transform="matrix(0.9741 0 0 1 219.8145 362.6909)" class="st1 st5 st6">CELLULITE TREATMENT</text>
</g>
<text transform="matrix(0.9741 0 0 1 219.8145 164.7285)" class="st1 st5 st8 st7">NON-INVASIVE TREATMENTS</text>
<text transform="matrix(0.9741 0 0 1 219.8145 256.8008)" class="st1 st2 st9">REGULAR BOOTY LIFT (1 HOUR) - $150</text>
<g>
	<text transform="matrix(0.9741 0 0 1 219.8145 279.5854)" class="st1 st2 st9">MINI BOOTY LIFT (30 MINUTES) - $100</text>
</g>
<g>
	<text transform="matrix(0.9741 0 0 1 219.8135 462.0889)" class="st1 st5 st6 st7">RADIO FREQUENCY</text>
</g>
<g>
	<text transform="matrix(0.9741 0 0 1 219.8135 736.1865)" class="st1 st5 st6 st7">CRYOLIPOLYSIS</text>
</g>
<g>
	<text transform="matrix(0.9741 0 0 1 219.8135 584.6133)" class="st1 st2 st9">SMALL AREA - $40 </text>
</g>
<g>
	<text transform="matrix(0.9741 0 0 1 219.8135 635.7812)" class="st1 st2 st9">MEDIUM AREA - $60 </text>
</g>
<g>
	<text transform="matrix(0.9741 0 0 1 219.8135 687.9209)" class="st1 st2 st9">LARGE AREA - $80 </text>
</g>
<text transform="matrix(0.9741 0 0 1 219.8516 214.4189)"><tspan x="0" y="0" class="st1 st10 st11">shape your butt, accentuate your curves, and achieve your desired look </tspan><tspan x="0" y="9.86" class="st1 st10 st11">without the use of invasive surgical procedures</tspan></text>
<g>
	<text transform="matrix(0.9741 0 0 1 219.8125 377.8921)"><tspan x="0" y="0" class="st1 st10 st11">used to tackle the hard-to-shift, dimpled fat that is often found on thighs,</tspan><tspan x="0" y="9.86" class="st1 st10 st11">knees, buttocks, stomach and the tops of arms</tspan></text>
</g>
<g>
	<text transform="matrix(0.9741 0 0 1 219.8135 429.1592)"><tspan x="0" y="0" class="st1 st10 st11">minimally invasive cosmetic procedure that uses a laser to melt away fat </tspan><tspan x="0" y="9.86" class="st1 st10 st11">under the skin</tspan></text>
</g>
<g>
	<text transform="matrix(0.9741 0 0 1 219.8525 477.6914)"><tspan x="0" y="0" class="st1 st10 st11">delivers energy to the areas of fat by driving controlled heat deep within</tspan><tspan x="0" y="9.86" class="st1 st10 st11">the fat cells and subsequently destroys them</tspan></text>
</g>
<g>
	<text transform="matrix(0.9741 0 0 1 219.8516 530.6309)"><tspan x="0" y="0" class="st1 st10 st11">weight-loss treatment that uses low-frequency sound waves to burst fat </tspan><tspan x="0" y="9.86" class="st1 st10 st11">cells, which may result in lost inches on the treated areas and (ultimately)</tspan><tspan x="0" y="19.71" class="st1 st10 st11">a slimmer figure</tspan></text>
</g>
<rect x="219.86" y="338.04" class="st1" width="322.9" height="2.33"/>
<rect x="219.86" y="708.99" class="st1" width="322.9" height="2.33"/>
<g>
	<text transform="matrix(0.9741 0 0 1 433.0771 583.9365)" class="st1 st10 st11">x3 $110 x6 $220 x12 $450</text>
</g>
<g>
	<text transform="matrix(0.9741 0 0 1 427.8926 315.8765)" class="st1 st10 st11">x3 $350 x6 $750 x12 $1400</text>
</g>
<g>
	<text transform="matrix(0.9741 0 0 1 474.8828 792.3066)" class="st1 st10 st11">x1 $200 x3 $550</text>
</g>
<g>
	<text transform="matrix(0.9741 0 0 1 433.0771 636.001)" class="st1 st10 st11">x3 $170 x6 $340 x12 $690</text>
</g>
<g>
	<text transform="matrix(0.9741 0 0 1 433.0771 687.2451)" class="st1 st10 st11">x3 $230 x6 $460 x12 $930</text>
</g>
<text transform="matrix(0.9741 0 0 1 219.8145 316.5513)" class="st1 st2 st9">PACKAGES</text>
<text transform="matrix(0.9741 0 0 1 219.8135 792.9814)" class="st1 st2 st9">PACKAGES</text>
<g>
	<text transform="matrix(0.9741 0 0 1 219.8145 750.3613)"><tspan x="0" y="0" class="st1 st10 st11">procedure that involves the non-invasive freezing of body fat to break down</tspan><tspan x="0" y="9.86" class="st1 st10 st11">fat cells, resulting in a reduction of body fat without damage to other tissues</tspan></text>
</g>
<text transform="matrix(0.9741 0 0 1 446.9639 732.793)" class="st1 st10 st12">SAN PEDRO LOCATION ONLY</text>
<g>
	<text transform="matrix(0.9741 0 0 1 28.8687 316.7808)"><tspan x="0" y="0" class="st13 st10 st6">HOME TREATMENTS</tspan><tspan x="8.82" y="23" class="st13 st10 st6">STARTING AT $200</tspan><tspan x="76.44" y="46" class="st13 st10 st6"> </tspan></text>
</g>
<text transform="matrix(0.9741 0 0 1 33.0112 494.291)" class="st13 st10 st14">PARTIES FOR 5 OR MORE</text>
<g>
	<text transform="matrix(0.9741 0 0 1 55.9346 281.4331)" class="st13 st5 st6">LA/OC AREA</text>
</g>
<g>
	<text transform="matrix(0.9741 0 0 1 17.7139 477.6914)" class="st13 st5 st6">BUBBLIES &amp; BOOTIES</text>
</g>
<g>
	<text transform="matrix(0.9741 0 0 1 21.603 527.7432)"><tspan x="0" y="0" class="st13 st10 st6">SERVICING WEDDING </tspan><tspan x="-11.82" y="23" class="st13 st10 st6">PARTIES, BACHELORETTE</tspan><tspan x="-5.22" y="46" class="st13 st10 st6">PARTIES OR ANY SMALL</tspan><tspan x="55.84" y="69" class="st13 st10 st6">EVENTS</tspan></text>
</g>
<g>
	<text transform="matrix(0.9741 0 0 1 19.8398 188.9053)"><tspan x="0" y="0" class="st13 st5 st15 st16">SERVICES</tspan><tspan x="-4.17" y="19.71" class="st13 st5 st9">AT YOUR CONVENIENCE </tspan></text>
</g>
<text transform="matrix(0.9741 0 0 1 45.3115 699.2402)" class="st13 st5 st14">CALL FOR PRICING</text>
<rect x="15.24" y="404.47" class="st17" width="180.12" height="0.02"/>
</svg>
